<mxfile host="app.diagrams.net" modified="2023-03-29T15:29:21.535Z" agent="Mozilla/5.0 (Windows NT 10.0; Win64; x64; rv:109.0) Gecko/20100101 Firefox/111.0" version="21.1.2" etag="7lCcRS5m3W16dI7Ij-8h" type="github">
  <diagram name="Page-1" id="DJTZfu_c-ULJQ9tTG3E1">
    <mxGraphModel>
      <root>
        <mxCell id="0" />
        <mxCell id="1" parent="0" />
      </root>
    </mxGraphModel>
  </diagram>
</mxfile>
